<svg width="512" height="512" viewBox="0 0 512 512" fill="none" xmlns="http://www.w3.org/2000/svg">
  <rect width="512" height="512" rx="112" fill="#111827"/>
  <path d="M94 150H256C329 150 377 197 377 259C377 322 329 369 256 369H94V150ZM164 209V310H251C284 310 306 289 306 259C306 230 284 209 251 209H164Z" fill="#F8FAFC"/>
  <path d="M164 215H218V397C218 438 191 466 150 466C122 466 101 454 88 433L132 401C136 410 142 415 151 415C159 415 164 409 164 397V215Z" fill="#38BDF8"/>
  <path d="M286 117H421V176H350V222H412V280H350V369H286V117Z" fill="#34D399"/>
</svg>
